<svg width="18" height="21" viewBox="0 0 18 21" fill="none" xmlns="http://www.w3.org/2000/svg">
<path d="M16.991 0.959961H0.996824C0.733056 0.962095 0.480648 1.07707 0.29413 1.28005C0.107613 1.48303 0.00196118 1.75771 0 2.04476V19.4504C0.00196118 19.7375 0.107613 20.0122 0.29413 20.2152C0.480648 20.4181 0.733056 20.5331 0.996824 20.5352H9.60849V12.9661H7.27007V10.0054H9.60849V7.82762C9.60849 5.29915 11.025 3.92072 13.1086 3.92072C13.8056 3.92072 14.5027 3.92072 15.1997 4.03491V6.66942H13.7682C12.6364 6.66942 12.4191 7.25668 12.4191 8.11309V9.99721H15.1173L14.765 12.958H12.4191V20.5352H16.991C17.2547 20.5331 17.5072 20.4181 17.6937 20.2152C17.8802 20.0122 17.9858 19.7375 17.9878 19.4504V2.04476C17.9858 1.75771 17.8802 1.48303 17.6937 1.28005C17.5072 1.07707 17.2547 0.962095 16.991 0.959961Z" fill="#D79D66"/>
</svg>
