<svg width="19" height="21" viewBox="0 0 19 21" fill="none" xmlns="http://www.w3.org/2000/svg">
<path d="M9.09156 8.41692C8.66801 8.41709 8.25402 8.55393 7.90193 8.81013C7.54984 9.06634 7.27546 9.4304 7.11348 9.85629C6.95151 10.2822 6.90921 10.7508 6.99194 11.2028C7.07467 11.6549 7.2787 12.0701 7.57825 12.396C7.8778 12.7218 8.25942 12.9437 8.67484 13.0336C9.09026 13.1234 9.52084 13.0772 9.91213 12.9008C10.3034 12.7244 10.6379 12.4256 10.8732 12.0424C11.1084 11.6591 11.234 11.2085 11.234 10.7476C11.2336 10.1295 11.0077 9.53677 10.606 9.09976C10.2043 8.66275 9.65957 8.41715 9.09156 8.41692ZM14.0988 6.62543C13.9898 6.32474 13.8252 6.05164 13.6151 5.82307C13.4051 5.59449 13.1541 5.41532 12.8778 5.29667C12.0347 4.93444 10.0271 5.01571 9.09156 5.01571C8.15603 5.01571 6.15047 4.93138 5.30488 5.29667C5.02858 5.41532 4.77763 5.59449 4.56759 5.82307C4.35755 6.05164 4.19291 6.32474 4.08388 6.62543C3.75143 7.54302 3.82571 9.72995 3.82571 10.7472C3.82571 11.7644 3.75143 13.9487 4.08549 14.8693C4.19452 15.17 4.35916 15.4431 4.56919 15.6717C4.77923 15.9003 5.03019 16.0794 5.30649 16.1981C6.14967 16.5603 8.15724 16.4791 9.09316 16.4791C10.0291 16.4791 12.0338 16.5634 12.8794 16.1981C13.1557 16.0794 13.4067 15.9003 13.6167 15.6717C13.8268 15.4431 13.9914 15.17 14.1004 14.8693C14.4357 13.9517 14.3586 11.7648 14.3586 10.7476C14.3586 9.73038 14.4357 7.54652 14.1004 6.62587L14.0988 6.62543ZM9.09156 14.3306C8.44038 14.3306 7.80383 14.1204 7.26239 13.7267C6.72096 13.333 6.29896 12.7734 6.04977 12.1187C5.80057 11.464 5.73537 10.7436 5.86241 10.0486C5.98945 9.35357 6.30302 8.71514 6.76347 8.21405C7.22392 7.71297 7.81058 7.37172 8.44924 7.23347C9.08791 7.09522 9.7499 7.16618 10.3515 7.43736C10.9531 7.70855 11.4673 8.16779 11.8291 8.75701C12.1909 9.34622 12.384 10.039 12.384 10.7476C12.3845 11.2183 12.2997 11.6845 12.1344 12.1194C11.9692 12.5544 11.7267 12.9496 11.4208 13.2824C11.115 13.6153 10.7518 13.8792 10.3521 14.059C9.95244 14.2389 9.52407 14.3312 9.09156 14.3306ZM12.5197 7.85063C12.3677 7.85072 12.219 7.80174 12.0926 7.7099C11.9662 7.61806 11.8676 7.48747 11.8094 7.33466C11.7512 7.18185 11.7359 7.01368 11.7655 6.85143C11.7951 6.68917 11.8683 6.54011 11.9757 6.4231C12.0832 6.3061 12.2201 6.2264 12.3692 6.1941C12.5183 6.16179 12.6728 6.17833 12.8133 6.24162C12.9537 6.3049 13.0738 6.4121 13.1582 6.54964C13.2427 6.68718 13.2878 6.84889 13.2878 7.01432C13.2882 7.12417 13.2687 7.23303 13.2304 7.33466C13.192 7.43629 13.1357 7.52869 13.0644 7.60655C12.9932 7.68441 12.9086 7.74621 12.8154 7.7884C12.7222 7.83058 12.6222 7.85233 12.5213 7.85238L12.5197 7.85063ZM16.1582 0.959961H2.02492C1.51378 0.959961 1.02357 1.18093 0.662139 1.57426C0.300707 1.96759 0.0976563 2.50106 0.0976562 3.05731L0.0976563 18.4379C0.0976563 18.9941 0.300707 19.5276 0.662139 19.9209C1.02357 20.3143 1.51378 20.5352 2.02492 20.5352H16.1582C16.6693 20.5352 17.1595 20.3143 17.521 19.9209C17.8824 19.5276 18.0855 18.9941 18.0855 18.4379V3.05731C18.0855 2.50106 17.8824 1.96759 17.521 1.57426C17.1595 1.18093 16.6693 0.959961 16.1582 0.959961ZM15.4708 13.6315C15.419 14.7514 15.1841 15.7437 14.4329 16.559C13.6817 17.3744 12.7706 17.6352 11.7428 17.6885C10.6824 17.7536 7.50317 17.7536 6.44277 17.6885C5.41369 17.6322 4.50507 17.3761 3.75263 16.559C3.0002 15.7419 2.76371 14.7492 2.71472 13.6315C2.6549 12.477 2.6549 9.01685 2.71472 7.86374C2.76652 6.74384 2.99859 5.75153 3.75263 4.93619C4.50668 4.12084 5.41771 3.86304 6.44277 3.80974C7.50317 3.74463 10.6824 3.74463 11.7428 3.80974C12.7718 3.8661 13.6833 4.12215 14.4329 4.93925C15.1825 5.75634 15.4218 6.74909 15.4708 7.86899C15.5306 9.01903 15.5306 12.4762 15.4708 13.6315Z" fill="#D79D66"/>
</svg>
