<svg width="19" height="21" viewBox="0 0 19 21" fill="none" xmlns="http://www.w3.org/2000/svg">
<path d="M18.1829 2.70306V18.0836C18.1829 19.2416 17.3196 20.181 16.2556 20.181H6.39444C6.78792 19.4644 7.29383 18.4332 7.49458 17.5899C7.61504 17.0874 8.1089 15.0381 8.1089 15.0381C8.43011 15.7066 9.36965 16.2703 10.3694 16.2703C13.3446 16.2703 15.4847 13.2947 15.4847 9.59811C15.4847 6.05446 12.8267 3.40218 9.40579 3.40218C5.14974 3.40218 2.89324 6.50888 2.89324 9.89523C2.89324 11.4682 3.66414 13.4258 4.89278 14.0506C5.08149 14.1467 5.17785 14.103 5.22202 13.9064C5.25414 13.7579 5.42277 13.0282 5.49505 12.6917C5.51914 12.5825 5.50709 12.4907 5.42679 12.3858C5.02126 11.8484 4.69202 10.8609 4.69202 9.93893C4.69202 7.57067 6.33822 5.28106 9.1448 5.28106C11.5659 5.28106 13.2643 7.07692 13.2643 9.64617C13.2643 12.5475 11.9193 14.5575 10.1646 14.5575C9.197 14.5575 8.47428 13.6879 8.70314 12.6174C8.98018 11.3415 9.51821 9.96514 9.51821 9.04318C9.51821 6.72736 6.48678 7.04633 6.48678 10.1356C6.48678 11.0837 6.77989 11.7304 6.77989 11.7304C5.51914 17.5331 5.33043 17.6074 5.59141 20.146L5.67974 20.181H2.12233C1.05832 20.181 0.195068 19.2416 0.195068 18.0836V2.70306C0.195068 1.54515 1.05832 0.605713 2.12233 0.605713H16.2556C17.3196 0.605713 18.1829 1.54515 18.1829 2.70306Z" fill="#D79D66"/>
</svg>
