<svg width="19" height="22" viewBox="0 0 19 22" fill="none" xmlns="http://www.w3.org/2000/svg">
<path d="M8.09301 8.02709L12.0683 10.5801L8.09301 13.1331V8.02709ZM19 2.26514V18.8762C19 20.1267 18.1023 21.1413 16.9957 21.1413H2.29708C1.19051 21.1413 0.292725 20.1267 0.292725 18.8762V2.26514C0.292725 1.01459 1.19051 0 2.29708 0H16.9957C18.1023 0 19 1.01459 19 2.26514ZM17.2462 10.5848C17.2462 10.5848 17.2462 7.77226 16.9289 6.42261C16.7535 5.67701 16.2399 5.09184 15.5843 4.89364C14.4026 4.53028 9.64638 4.53028 9.64638 4.53028C9.64638 4.53028 4.89021 4.53028 3.70848 4.89364C3.05289 5.09184 2.53927 5.67701 2.36389 6.42261C2.04654 7.76754 2.04654 10.5848 2.04654 10.5848C2.04654 10.5848 2.04654 13.3974 2.36389 14.747C2.53927 15.4926 3.05289 16.0542 3.70848 16.2524C4.89021 16.611 9.64638 16.611 9.64638 16.611C9.64638 16.611 14.4026 16.611 15.5843 16.2477C16.2399 16.0495 16.7535 15.4879 16.9289 14.7423C17.2462 13.3974 17.2462 10.5848 17.2462 10.5848Z" fill="#D79D66"/>
</svg>
